<svg width="144" height="34" viewBox="0 0 144 34" fill="none" xmlns="http://www.w3.org/2000/svg">
<path d="M132.662 26.288C131.51 26.288 130.606 25.992 129.95 25.4C129.31 24.792 128.99 23.968 128.99 22.928C128.99 22.336 129.086 21.816 129.278 21.368C129.47 20.904 129.782 20.52 130.214 20.216C130.662 19.912 131.238 19.68 131.942 19.52C132.646 19.36 133.502 19.28 134.51 19.28H136.286V17.456C136.286 16.48 136.046 15.736 135.566 15.224C135.102 14.696 134.398 14.432 133.454 14.432C133.038 14.432 132.654 14.472 132.302 14.552C131.95 14.616 131.662 14.712 131.438 14.84V14.888C131.614 14.984 131.782 15.128 131.942 15.32C132.118 15.512 132.206 15.784 132.206 16.136C132.206 16.552 132.086 16.88 131.846 17.12C131.606 17.344 131.286 17.456 130.886 17.456C130.502 17.456 130.182 17.344 129.926 17.12C129.686 16.88 129.566 16.528 129.566 16.064C129.566 15.712 129.67 15.376 129.878 15.056C130.086 14.72 130.382 14.424 130.766 14.168C131.15 13.912 131.622 13.712 132.182 13.568C132.758 13.408 133.406 13.328 134.126 13.328C135.422 13.328 136.43 13.664 137.15 14.336C137.886 15.008 138.254 15.952 138.254 17.168V24.968H140.054V25.808C139.878 25.936 139.638 26.048 139.334 26.144C139.046 26.24 138.718 26.288 138.35 26.288C137.726 26.288 137.246 26.112 136.91 25.76C136.574 25.408 136.406 24.936 136.406 24.344V24.176H136.286C136.174 24.448 136.022 24.712 135.83 24.968C135.654 25.224 135.422 25.448 135.134 25.64C134.846 25.832 134.494 25.984 134.078 26.096C133.678 26.224 133.206 26.288 132.662 26.288ZM133.502 24.968C134.27 24.968 134.926 24.776 135.47 24.392C136.014 23.992 136.286 23.384 136.286 22.568V20.24H134.726C134.038 20.24 133.462 20.296 132.998 20.408C132.534 20.504 132.166 20.656 131.894 20.864C131.622 21.056 131.422 21.296 131.294 21.584C131.182 21.872 131.126 22.208 131.126 22.592V23.096C131.126 23.704 131.334 24.168 131.75 24.488C132.166 24.808 132.75 24.968 133.502 24.968Z" fill="#E3E5F3"/>
<path d="M123.116 31.088C122.316 31.088 121.724 30.912 121.34 30.56C120.956 30.208 120.764 29.76 120.764 29.216C120.764 28.864 120.868 28.568 121.076 28.328C121.284 28.088 121.572 27.968 121.94 27.968C122.292 27.968 122.556 28.072 122.732 28.28C122.924 28.488 123.02 28.76 123.02 29.096C123.02 29.32 122.964 29.52 122.852 29.696C122.756 29.888 122.636 30.008 122.492 30.056V30.128C122.636 30.192 122.844 30.224 123.116 30.224C124.108 30.224 124.604 29.584 124.604 28.304V15.176L122.828 14.864V14.048L126.572 13.328V27.248C126.572 28.544 126.268 29.504 125.66 30.128C125.052 30.768 124.204 31.088 123.116 31.088ZM125.588 10.76C125.172 10.76 124.852 10.64 124.628 10.4C124.42 10.144 124.316 9.83999 124.316 9.48799V9.36799C124.316 9.01599 124.42 8.71999 124.628 8.47999C124.852 8.22399 125.172 8.09599 125.588 8.09599C126.004 8.09599 126.324 8.22399 126.548 8.47999C126.772 8.71999 126.884 9.01599 126.884 9.36799V9.48799C126.884 9.83999 126.772 10.144 126.548 10.4C126.324 10.64 126.004 10.76 125.588 10.76Z" fill="#E3E5F3"/>
<path d="M108.795 24.896H110.571V15.176L108.795 14.864V14.048L112.491 13.328V15.488H112.587C112.683 15.248 112.827 15 113.019 14.744C113.227 14.488 113.475 14.256 113.763 14.048C114.067 13.84 114.419 13.672 114.819 13.544C115.219 13.4 115.659 13.328 116.139 13.328C117.627 13.328 118.691 13.72 119.331 14.504C119.987 15.272 120.315 16.432 120.315 17.984V24.896H122.091V26H116.571V24.896H118.347V18.152C118.347 15.848 117.379 14.696 115.443 14.696C115.091 14.696 114.739 14.744 114.387 14.84C114.051 14.936 113.739 15.088 113.451 15.296C113.179 15.504 112.955 15.76 112.779 16.064C112.619 16.368 112.539 16.728 112.539 17.144V24.896H114.315V26H108.795V24.896Z" fill="#E3E5F3"/>
<path d="M105.186 10.76C104.77 10.76 104.45 10.64 104.226 10.4C104.018 10.144 103.914 9.83999 103.914 9.48799V9.36799C103.914 9.01599 104.018 8.71999 104.226 8.47999C104.45 8.22399 104.77 8.09599 105.186 8.09599C105.602 8.09599 105.922 8.22399 106.146 8.47999C106.37 8.71999 106.482 9.01599 106.482 9.36799V9.48799C106.482 9.83999 106.37 10.144 106.146 10.4C105.922 10.64 105.602 10.76 105.186 10.76ZM102.426 24.896H104.202V15.176L102.426 14.864V14.048L106.17 13.328V24.896H107.946V26H102.426V24.896Z" fill="#E3E5F3"/>
<path d="M85.0664 24.896H86.8664V10.352H85.0664V9.248H89.1224L98.1224 22.688H98.2184V10.352H96.4184V9.248H101.338V10.352H99.5384V26H97.9304L88.2824 11.576H88.1864V24.896H89.9864V26H85.0664V24.896Z" fill="#E3E5F3"/>
<path d="M78.7742 26.288C77.8942 26.288 77.1022 26.136 76.3982 25.832C75.7102 25.512 75.1262 25.072 74.6462 24.512C74.1662 23.952 73.7982 23.272 73.5422 22.472C73.2862 21.672 73.1582 20.784 73.1582 19.808C73.1582 18.848 73.2942 17.976 73.5662 17.192C73.8542 16.392 74.2382 15.704 74.7182 15.128C75.2142 14.552 75.7982 14.112 76.4702 13.808C77.1422 13.488 77.8782 13.328 78.6782 13.328C79.4942 13.328 80.2222 13.472 80.8622 13.76C81.5022 14.048 82.0382 14.456 82.4702 14.984C82.9182 15.496 83.2622 16.112 83.5022 16.832C83.7422 17.552 83.8622 18.336 83.8622 19.184V19.736H75.3422V20.36C75.3422 21.72 75.6782 22.792 76.3502 23.576C77.0382 24.36 77.9502 24.752 79.0862 24.752C80.0782 24.752 80.8622 24.552 81.4382 24.152C82.0302 23.736 82.4942 23.2 82.8302 22.544L83.6222 23.048C83.4622 23.464 83.2382 23.872 82.9502 24.272C82.6782 24.656 82.3422 25 81.9422 25.304C81.5422 25.592 81.0782 25.824 80.5502 26C80.0222 26.192 79.4302 26.288 78.7742 26.288ZM75.3422 18.632H81.7982V18.392C81.7982 17.832 81.7342 17.312 81.6062 16.832C81.4942 16.352 81.3102 15.936 81.0542 15.584C80.7982 15.232 80.4702 14.96 80.0702 14.768C79.6862 14.56 79.2222 14.456 78.6782 14.456C78.1342 14.456 77.6542 14.552 77.2382 14.744C76.8222 14.936 76.4702 15.208 76.1822 15.56C75.9102 15.912 75.7022 16.328 75.5582 16.808C75.4142 17.272 75.3422 17.784 75.3422 18.344V18.632Z" fill="#E3E5F3"/>
<path d="M64.941 26.288C63.405 26.288 62.173 25.736 61.245 24.632C60.333 23.512 59.877 21.904 59.877 19.808C59.877 17.712 60.333 16.112 61.245 15.008C62.173 13.888 63.405 13.328 64.941 13.328C65.901 13.328 66.677 13.536 67.269 13.952C67.877 14.368 68.317 14.872 68.589 15.464H68.685V9.608L66.885 9.296V8.456L70.653 7.75999V24.44L72.429 24.752V25.568L68.685 26.288V24.128H68.589C68.317 24.72 67.885 25.232 67.293 25.664C66.701 26.08 65.917 26.288 64.941 26.288ZM65.517 24.92C65.901 24.92 66.285 24.864 66.669 24.752C67.053 24.64 67.389 24.48 67.677 24.272C67.981 24.064 68.2209 23.808 68.3969 23.504C68.5889 23.184 68.685 22.832 68.685 22.448V17.168C68.685 16.784 68.5889 16.44 68.3969 16.136C68.2209 15.816 67.981 15.552 67.677 15.344C67.389 15.136 67.053 14.976 66.669 14.864C66.285 14.752 65.901 14.696 65.517 14.696C64.413 14.696 63.549 15.072 62.925 15.824C62.317 16.56 62.013 17.552 62.013 18.8V20.816C62.013 22.064 62.317 23.064 62.925 23.816C63.549 24.552 64.413 24.92 65.517 24.92Z" fill="#E3E5F3"/>
<path d="M52.8638 25.112C53.4558 25.112 53.9678 25.016 54.3998 24.824C54.8478 24.616 55.2078 24.336 55.4798 23.984C55.7678 23.616 55.9758 23.192 56.1038 22.712C56.2478 22.216 56.3198 21.68 56.3198 21.104V18.512C56.3198 17.936 56.2478 17.408 56.1038 16.928C55.9758 16.432 55.7678 16.008 55.4798 15.656C55.2078 15.288 54.8478 15.008 54.3998 14.816C53.9678 14.608 53.4558 14.504 52.8638 14.504C52.2558 14.504 51.7358 14.608 51.3038 14.816C50.8718 15.008 50.5118 15.288 50.2238 15.656C49.9518 16.008 49.7438 16.432 49.5998 16.928C49.4718 17.408 49.4078 17.936 49.4078 18.512V21.104C49.4078 21.68 49.4718 22.216 49.5998 22.712C49.7438 23.192 49.9518 23.616 50.2238 23.984C50.5118 24.336 50.8718 24.616 51.3038 24.824C51.7358 25.016 52.2558 25.112 52.8638 25.112ZM52.8638 26.288C52.0158 26.288 51.2398 26.136 50.5358 25.832C49.8318 25.528 49.2318 25.096 48.7358 24.536C48.2398 23.96 47.8558 23.28 47.5838 22.496C47.3118 21.696 47.1758 20.8 47.1758 19.808C47.1758 18.832 47.3118 17.944 47.5838 17.144C47.8558 16.344 48.2398 15.664 48.7358 15.104C49.2318 14.528 49.8318 14.088 50.5358 13.784C51.2398 13.48 52.0158 13.328 52.8638 13.328C53.7118 13.328 54.4878 13.48 55.1918 13.784C55.8958 14.088 56.4958 14.528 56.9918 15.104C57.4878 15.664 57.8718 16.344 58.1438 17.144C58.4158 17.944 58.5518 18.832 58.5518 19.808C58.5518 20.8 58.4158 21.696 58.1438 22.496C57.8718 23.28 57.4878 23.96 56.9918 24.536C56.4958 25.096 55.8958 25.528 55.1918 25.832C54.4878 26.136 53.7118 26.288 52.8638 26.288Z" fill="#E3E5F3"/>
<path d="M40.1525 26.288C39.0965 26.288 38.1365 26.088 37.2725 25.688C36.4085 25.288 35.6725 24.712 35.0645 23.96C34.4565 23.208 33.9845 22.296 33.6485 21.224C33.3125 20.152 33.1445 18.952 33.1445 17.624C33.1445 16.232 33.3125 15 33.6485 13.928C33.9845 12.856 34.4485 11.952 35.0405 11.216C35.6485 10.48 36.3765 9.91999 37.2245 9.53599C38.0725 9.15199 39.0085 8.95999 40.0325 8.95999C41.0725 8.95999 41.9365 9.13599 42.6245 9.48799C43.3285 9.82399 43.7925 10.248 44.0165 10.76H44.1125V9.24799H45.8405V14.144H44.1125V12.896C44.1125 12.096 43.7605 11.456 43.0565 10.976C42.3525 10.48 41.4325 10.232 40.2965 10.232C39.4485 10.232 38.7125 10.392 38.0885 10.712C37.4805 11.016 36.9765 11.44 36.5765 11.984C36.1925 12.512 35.9045 13.136 35.7125 13.856C35.5365 14.56 35.4485 15.304 35.4485 16.088V18.992C35.4485 19.872 35.5605 20.664 35.7845 21.368C36.0245 22.072 36.3605 22.68 36.7925 23.192C37.2405 23.688 37.7845 24.072 38.4245 24.344C39.0645 24.616 39.7925 24.752 40.6085 24.752C41.7445 24.752 42.6965 24.456 43.4645 23.864C44.2325 23.272 44.7925 22.52 45.1445 21.608L46.0805 22.064C45.9365 22.528 45.7045 23.008 45.3845 23.504C45.0645 24 44.6565 24.456 44.1605 24.872C43.6805 25.288 43.1045 25.632 42.4325 25.904C41.7605 26.16 41.0005 26.288 40.1525 26.288Z" fill="#E3E5F3"/>
<path d="M26.1314 25.112C26.7234 25.112 27.2354 25.016 27.6674 24.824C28.1154 24.616 28.4754 24.336 28.7474 23.984C29.0354 23.616 29.2434 23.192 29.3714 22.712C29.5154 22.216 29.5874 21.68 29.5874 21.104V18.512C29.5874 17.936 29.5154 17.408 29.3714 16.928C29.2434 16.432 29.0354 16.008 28.7474 15.656C28.4754 15.288 28.1154 15.008 27.6674 14.816C27.2354 14.608 26.7234 14.504 26.1314 14.504C25.5234 14.504 25.0034 14.608 24.5714 14.816C24.1394 15.008 23.7794 15.288 23.4914 15.656C23.2194 16.008 23.0114 16.432 22.8674 16.928C22.7394 17.408 22.6754 17.936 22.6754 18.512V21.104C22.6754 21.68 22.7394 22.216 22.8674 22.712C23.0114 23.192 23.2194 23.616 23.4914 23.984C23.7794 24.336 24.1394 24.616 24.5714 24.824C25.0034 25.016 25.5234 25.112 26.1314 25.112ZM26.1314 26.288C25.2834 26.288 24.5074 26.136 23.8034 25.832C23.0994 25.528 22.4994 25.096 22.0034 24.536C21.5074 23.96 21.1234 23.28 20.8514 22.496C20.5794 21.696 20.4434 20.8 20.4434 19.808C20.4434 18.832 20.5794 17.944 20.8514 17.144C21.1234 16.344 21.5074 15.664 22.0034 15.104C22.4994 14.528 23.0994 14.088 23.8034 13.784C24.5074 13.48 25.2834 13.328 26.1314 13.328C26.9794 13.328 27.7554 13.48 28.4594 13.784C29.1634 14.088 29.7634 14.528 30.2594 15.104C30.7554 15.664 31.1394 16.344 31.4114 17.144C31.6834 17.944 31.8194 18.832 31.8194 19.808C31.8194 20.8 31.6834 21.696 31.4114 22.496C31.1394 23.28 30.7554 23.96 30.2594 24.536C29.7634 25.096 29.1634 25.528 28.4594 25.832C27.7554 26.136 26.9794 26.288 26.1314 26.288Z" fill="#E3E5F3"/>
<path d="M3.32031 24.896H5.12031V10.352H3.32031V9.248H7.37631L16.3763 22.688H16.4723V10.352H14.6723V9.248H19.5923V10.352H17.7923V26H16.1843L6.53631 11.576H6.44031V24.896H8.24031V26H3.32031V24.896Z" fill="#E3E5F3"/>
</svg>
